<svg xmlns="http://www.w3.org/2000/svg" width="1800" height="680" viewBox="0 0 1800 680"><defs><marker id="arrow-data" markerWidth="12" markerHeight="12" refX="10" refY="5" orient="auto"><path d="M0,0 L10,5 L0,10 Z" fill="#2563eb"/></marker><marker id="arrow-memory" markerWidth="12" markerHeight="12" refX="10" refY="5" orient="auto"><path d="M0,0 L10,5 L0,10 Z" fill="#16a34a"/></marker><marker id="arrow-compute" markerWidth="12" markerHeight="12" refX="10" refY="5" orient="auto"><path d="M0,0 L10,5 L0,10 Z" fill="#7c3aed"/></marker><marker id="arrow-control" markerWidth="12" markerHeight="12" refX="10" refY="5" orient="auto"><path d="M0,0 L10,5 L0,10 Z" fill="#ea580c"/></marker><marker id="arrow-neutral" markerWidth="12" markerHeight="12" refX="10" refY="5" orient="auto"><path d="M0,0 L10,5 L0,10 Z" fill="#64748b"/></marker><marker id="arrow-dark" markerWidth="12" markerHeight="12" refX="10" refY="5" orient="auto"><path d="M0,0 L10,5 L0,10 Z" fill="#0f172a"/></marker></defs><rect x="50" y="35" width="1290" height="62" rx="20" fill="#334155" stroke="#0f172a" stroke-width="2"/><text x="80" y="77" font-family="Noto Sans CJK SC, sans-serif" font-size="30" font-weight="700" fill="#ffffff">第四步：从 SMEM Tensor 构造 TCGen05 MMA Descriptor</text><g font-family="Noto Sans CJK SC, sans-serif"><path d="M 430 325 L 550 325" fill="none" stroke="#64748b" stroke-width="3" stroke-linejoin="round" marker-end="url(#arrow-neutral)"/><rect x="403" y="296" width="174" height="38" rx="11" fill="#f8fafc" stroke="#94a3b8"/><text x="490" y="320" font-size="15" text-anchor="middle" fill="#334155">地址与 Layout</text><path d="M 890 325 L 1010 325" fill="none" stroke="#7c3aed" stroke-width="3" stroke-linejoin="round" marker-end="url(#arrow-compute)"/><rect x="900" y="296" width="100" height="38" rx="11" fill="#f8fafc" stroke="#94a3b8"/><text x="950" y="320" font-size="15" text-anchor="middle" fill="#334155">生成描述符</text><path d="M 1340 325 L 1450 325" fill="none" stroke="#7c3aed" stroke-width="3" stroke-linejoin="round" marker-end="url(#arrow-compute)"/><rect x="1330.5" y="296" width="129" height="38" rx="11" fill="#f8fafc" stroke="#94a3b8"/><text x="1395" y="320" font-size="15" text-anchor="middle" fill="#334155">A/B 操作数</text><rect x="80" y="210" width="350" height="230" rx="22" fill="#dcfce7" stroke="#16a34a" stroke-width="3"/><text x="98" y="253" font-size="25" font-weight="700" fill="#0f172a">A/B 实际数值存储</text><text x="100" y="296" font-size="19" fill="#1f2937">SharedStorage::A/B</text><text x="100" y="327" font-size="19" fill="#1f2937">tCsA / tCsB</text><text x="100" y="358" font-size="19" fill="#1f2937">Engine = SMEM pointer</text><rect x="550" y="210" width="340" height="230" rx="22" fill="#ede9fe" stroke="#7c3aed" stroke-width="3"/><text x="568" y="253" font-size="25" font-weight="700" fill="#0f172a">读取地址与 Layout 元数据</text><text x="570" y="296" font-size="19" fill="#1f2937">make_fragment_A(tCsA)</text><text x="570" y="327" font-size="19" fill="#1f2937">make_fragment_B(tCsB)</text><text x="570" y="358" font-size="19" fill="#1f2937">不读取 A/B 数值</text><rect x="1010" y="210" width="330" height="230" rx="22" fill="#dbeafe" stroke="#2563eb" stroke-width="3"/><text x="1028" y="253" font-size="25" font-weight="700" fill="#0f172a">MMA SMEM Descriptor</text><text x="1030" y="296" font-size="19" fill="#1f2937">tCrA / tCrB</text><text x="1030" y="327" font-size="19" fill="#1f2937">UMMA::DescriptorIterator</text><text x="1030" y="358" font-size="19" fill="#1f2937">地址 / Stride / Swizzle</text><rect x="1450" y="210" width="330" height="230" rx="22" fill="#ede9fe" stroke="#7c3aed" stroke-width="3"/><text x="1468" y="253" font-size="25" font-weight="700" fill="#0f172a">TCGen05 MMA</text><text x="1470" y="296" font-size="19" fill="#1f2937">发射时解释 Descriptor</text><text x="1470" y="327" font-size="19" fill="#1f2937">要求 SMEM ready</text></g></svg>