<?xml version="1.0" encoding="utf-8" standalone="no"?>
<!DOCTYPE svg PUBLIC "-//W3C//DTD SVG 1.1//EN"
  "http://www.w3.org/Graphics/SVG/1.1/DTD/svg11.dtd">
<svg xmlns:xlink="http://www.w3.org/1999/xlink" width="895.079611pt" height="418.6368pt" viewBox="0 0 895.079611 418.6368" xmlns="http://www.w3.org/2000/svg" version="1.1">
 <metadata>
  <rdf:RDF xmlns:dc="http://purl.org/dc/elements/1.1/" xmlns:cc="http://creativecommons.org/ns#" xmlns:rdf="http://www.w3.org/1999/02/22-rdf-syntax-ns#">
   <cc:Work>
    <dc:type rdf:resource="http://purl.org/dc/dcmitype/StillImage"/>
    <dc:format>image/svg+xml</dc:format>
    <dc:creator>
     <cc:Agent>
      <dc:title>Matplotlib v3.10.9, https://matplotlib.org/</dc:title>
     </cc:Agent>
    </dc:creator>
   </cc:Work>
  </rdf:RDF>
 </metadata>
 <defs>
  <style type="text/css">*{stroke-linejoin: round; stroke-linecap: butt}</style>
 </defs>
 <g id="figure_1">
  <g id="patch_1">
   <path d="M 0 418.6368
L 895.079611 418.6368
L 895.079611 0
L 0 0
z
" style="fill: #ffffff"/>
  </g>
  <g id="axes_1">
   <g id="patch_2">
    <path d="M 44.501384 103.521948
L 104.929955 103.521948
L 104.929955 163.950519
L 44.501384 163.950519
z
" clip-path="url(#p854eb6727d)" style="fill: #e8f1ff; stroke: #344054; stroke-width: 0.75; stroke-linejoin: miter"/>
   </g>
   <g id="patch_3">
    <path d="M 104.929955 103.521948
L 165.358527 103.521948
L 165.358527 163.950519
L 104.929955 163.950519
z
" clip-path="url(#p854eb6727d)" style="fill: #e8f1ff; stroke: #344054; stroke-width: 0.75; stroke-linejoin: miter"/>
   </g>
   <g id="patch_4">
    <path d="M 165.358527 103.521948
L 225.787098 103.521948
L 225.787098 163.950519
L 165.358527 163.950519
z
" clip-path="url(#p854eb6727d)" style="fill: #e8f1ff; stroke: #344054; stroke-width: 0.75; stroke-linejoin: miter"/>
   </g>
   <g id="patch_5">
    <path d="M 225.787098 103.521948
L 286.21567 103.521948
L 286.21567 163.950519
L 225.787098 163.950519
z
" clip-path="url(#p854eb6727d)" style="fill: #e8f1ff; stroke: #344054; stroke-width: 0.75; stroke-linejoin: miter"/>
   </g>
   <g id="patch_6">
    <path d="M 286.21567 103.521948
L 346.644241 103.521948
L 346.644241 163.950519
L 286.21567 163.950519
z
" clip-path="url(#p854eb6727d)" style="fill: #e8f1ff; stroke: #344054; stroke-width: 0.75; stroke-linejoin: miter"/>
   </g>
   <g id="patch_7">
    <path d="M 346.644241 103.521948
L 407.072812 103.521948
L 407.072812 163.950519
L 346.644241 163.950519
z
" clip-path="url(#p854eb6727d)" style="fill: #e8f1ff; stroke: #344054; stroke-width: 0.75; stroke-linejoin: miter"/>
   </g>
   <g id="patch_8">
    <path d="M 44.501384 163.950519
L 104.929955 163.950519
L 104.929955 224.379091
L 44.501384 224.379091
z
" clip-path="url(#p854eb6727d)" style="fill: #e8f1ff; stroke: #344054; stroke-width: 0.75; stroke-linejoin: miter"/>
   </g>
   <g id="patch_9">
    <path d="M 104.929955 163.950519
L 165.358527 163.950519
L 165.358527 224.379091
L 104.929955 224.379091
z
" clip-path="url(#p854eb6727d)" style="fill: #e8f1ff; stroke: #344054; stroke-width: 0.75; stroke-linejoin: miter"/>
   </g>
   <g id="patch_10">
    <path d="M 165.358527 163.950519
L 225.787098 163.950519
L 225.787098 224.379091
L 165.358527 224.379091
z
" clip-path="url(#p854eb6727d)" style="fill: #e8f1ff; stroke: #344054; stroke-width: 0.75; stroke-linejoin: miter"/>
   </g>
   <g id="patch_11">
    <path d="M 225.787098 163.950519
L 286.21567 163.950519
L 286.21567 224.379091
L 225.787098 224.379091
z
" clip-path="url(#p854eb6727d)" style="fill: #e8f1ff; stroke: #344054; stroke-width: 0.75; stroke-linejoin: miter"/>
   </g>
   <g id="patch_12">
    <path d="M 286.21567 163.950519
L 346.644241 163.950519
L 346.644241 224.379091
L 286.21567 224.379091
z
" clip-path="url(#p854eb6727d)" style="fill: #e8f1ff; stroke: #344054; stroke-width: 0.75; stroke-linejoin: miter"/>
   </g>
   <g id="patch_13">
    <path d="M 346.644241 163.950519
L 407.072812 163.950519
L 407.072812 224.379091
L 346.644241 224.379091
z
" clip-path="url(#p854eb6727d)" style="fill: #e8f1ff; stroke: #344054; stroke-width: 0.75; stroke-linejoin: miter"/>
   </g>
   <g id="patch_14">
    <path d="M 44.501384 224.379091
L 104.929955 224.379091
L 104.929955 284.807662
L 44.501384 284.807662
z
" clip-path="url(#p854eb6727d)" style="fill: #e8f1ff; stroke: #344054; stroke-width: 0.75; stroke-linejoin: miter"/>
   </g>
   <g id="patch_15">
    <path d="M 104.929955 224.379091
L 165.358527 224.379091
L 165.358527 284.807662
L 104.929955 284.807662
z
" clip-path="url(#p854eb6727d)" style="fill: #e8f1ff; stroke: #344054; stroke-width: 0.75; stroke-linejoin: miter"/>
   </g>
   <g id="patch_16">
    <path d="M 165.358527 224.379091
L 225.787098 224.379091
L 225.787098 284.807662
L 165.358527 284.807662
z
" clip-path="url(#p854eb6727d)" style="fill: #e8f1ff; stroke: #344054; stroke-width: 0.75; stroke-linejoin: miter"/>
   </g>
   <g id="patch_17">
    <path d="M 225.787098 224.379091
L 286.21567 224.379091
L 286.21567 284.807662
L 225.787098 284.807662
z
" clip-path="url(#p854eb6727d)" style="fill: #e8f1ff; stroke: #344054; stroke-width: 0.75; stroke-linejoin: miter"/>
   </g>
   <g id="patch_18">
    <path d="M 286.21567 224.379091
L 346.644241 224.379091
L 346.644241 284.807662
L 286.21567 284.807662
z
" clip-path="url(#p854eb6727d)" style="fill: #e8f1ff; stroke: #344054; stroke-width: 0.75; stroke-linejoin: miter"/>
   </g>
   <g id="patch_19">
    <path d="M 346.644241 224.379091
L 407.072812 224.379091
L 407.072812 284.807662
L 346.644241 284.807662
z
" clip-path="url(#p854eb6727d)" style="fill: #e8f1ff; stroke: #344054; stroke-width: 0.75; stroke-linejoin: miter"/>
   </g>
   <g id="patch_20">
    <path d="M 44.501384 284.807662
L 104.929955 284.807662
L 104.929955 345.236234
L 44.501384 345.236234
z
" clip-path="url(#p854eb6727d)" style="fill: #e8f1ff; stroke: #344054; stroke-width: 0.75; stroke-linejoin: miter"/>
   </g>
   <g id="patch_21">
    <path d="M 104.929955 284.807662
L 165.358527 284.807662
L 165.358527 345.236234
L 104.929955 345.236234
z
" clip-path="url(#p854eb6727d)" style="fill: #e8f1ff; stroke: #344054; stroke-width: 0.75; stroke-linejoin: miter"/>
   </g>
   <g id="patch_22">
    <path d="M 165.358527 284.807662
L 225.787098 284.807662
L 225.787098 345.236234
L 165.358527 345.236234
z
" clip-path="url(#p854eb6727d)" style="fill: #e8f1ff; stroke: #344054; stroke-width: 0.75; stroke-linejoin: miter"/>
   </g>
   <g id="patch_23">
    <path d="M 225.787098 284.807662
L 286.21567 284.807662
L 286.21567 345.236234
L 225.787098 345.236234
z
" clip-path="url(#p854eb6727d)" style="fill: #e8f1ff; stroke: #344054; stroke-width: 0.75; stroke-linejoin: miter"/>
   </g>
   <g id="patch_24">
    <path d="M 286.21567 284.807662
L 346.644241 284.807662
L 346.644241 345.236234
L 286.21567 345.236234
z
" clip-path="url(#p854eb6727d)" style="fill: #e8f1ff; stroke: #344054; stroke-width: 0.75; stroke-linejoin: miter"/>
   </g>
   <g id="patch_25">
    <path d="M 346.644241 284.807662
L 407.072812 284.807662
L 407.072812 345.236234
L 346.644241 345.236234
z
" clip-path="url(#p854eb6727d)" style="fill: #e8f1ff; stroke: #344054; stroke-width: 0.75; stroke-linejoin: miter"/>
   </g>
   <g id="text_1">
    <g id="patch_26">
     <path d="M 151.356629 68.58735
L 300.217567 68.58735
Q 303.417567 68.58735 303.417567 65.38735
L 303.417567 55.709225
Q 303.417567 52.509225 300.217567 52.509225
L 151.356629 52.509225
Q 148.156629 52.509225 148.156629 55.709225
L 148.156629 65.38735
Q 148.156629 68.58735 151.356629 68.58735
z
" style="fill: #e8f1ff; stroke: #1d4ed8; stroke-linejoin: miter"/>
    </g>
    <text style="font-weight: 700; font-size: 10px; font-family: 'DejaVu Sans'; text-anchor: middle; fill: #1d4ed8" x="225.787098" y="63.307662" transform="rotate(-0 225.787098 63.307662)">A (512x384): 4x6 CTA tiles</text>
   </g>
   <g id="patch_27">
    <path d="M 104.929955 163.950519
L 165.358527 163.950519
L 165.358527 224.379091
L 104.929955 224.379091
z
" clip-path="url(#p854eb6727d)" style="fill: #ffe6b0; stroke: #b45309; stroke-width: 2; stroke-linejoin: miter"/>
   </g>
   <g id="text_2">
    <text style="font-size: 8px; font-family: 'DejaVu Sans'" transform="translate(110.735491 191.89318)">selected tile</text>
    <text style="font-size: 8px; font-family: 'DejaVu Sans'" transform="translate(125.661741 200.85143)">(1,1)</text>
   </g>
   <g id="text_3">
    <text style="font-size: 8.5px; font-family: 'DejaVu Sans'; text-anchor: middle; fill: #596579" x="26.372813" y="135.963499" transform="rotate(-0 26.372813 135.963499)">m_tile=0</text>
   </g>
   <g id="text_4">
    <text style="font-size: 8.5px; font-family: 'DejaVu Sans'; text-anchor: middle; fill: #596579" x="26.372813" y="196.392071" transform="rotate(-0 26.372813 196.392071)">m_tile=1</text>
   </g>
   <g id="text_5">
    <text style="font-size: 8.5px; font-family: 'DejaVu Sans'; text-anchor: middle; fill: #596579" x="26.372813" y="256.820642" transform="rotate(-0 26.372813 256.820642)">m_tile=2</text>
   </g>
   <g id="text_6">
    <text style="font-size: 8.5px; font-family: 'DejaVu Sans'; text-anchor: middle; fill: #596579" x="26.372813" y="317.249214" transform="rotate(-0 26.372813 317.249214)">m_tile=3</text>
   </g>
   <g id="text_7">
    <text style="font-size: 8.5px; font-family: 'DejaVu Sans'; text-anchor: middle; fill: #596579" x="74.71567" y="87.738845" transform="rotate(-0 74.71567 87.738845)">q=0</text>
   </g>
   <g id="text_8">
    <text style="font-size: 8.5px; font-family: 'DejaVu Sans'; text-anchor: middle; fill: #596579" x="135.144241" y="87.738845" transform="rotate(-0 135.144241 87.738845)">q=1</text>
   </g>
   <g id="text_9">
    <text style="font-size: 8.5px; font-family: 'DejaVu Sans'; text-anchor: middle; fill: #596579" x="195.572812" y="87.738845" transform="rotate(-0 195.572812 87.738845)">q=2</text>
   </g>
   <g id="text_10">
    <text style="font-size: 8.5px; font-family: 'DejaVu Sans'; text-anchor: middle; fill: #596579" x="256.001384" y="87.738845" transform="rotate(-0 256.001384 87.738845)">q=3</text>
   </g>
   <g id="text_11">
    <text style="font-size: 8.5px; font-family: 'DejaVu Sans'; text-anchor: middle; fill: #596579" x="316.429955" y="87.738845" transform="rotate(-0 316.429955 87.738845)">q=4</text>
   </g>
   <g id="text_12">
    <text style="font-size: 8.5px; font-family: 'DejaVu Sans'; text-anchor: middle; fill: #596579" x="376.858527" y="87.738845" transform="rotate(-0 376.858527 87.738845)">q=5</text>
   </g>
   <g id="line2d_1">
    <path d="M 135.144241 194.164805
" clip-path="url(#p854eb6727d)" style="fill: none; stroke: #f59e0b; stroke-width: 1.5; stroke-linecap: square"/>
    <defs>
     <path id="ma4b51d22b1" d="M 0 3.5
C 0.928211 3.5 1.81853 3.131218 2.474874 2.474874
C 3.131218 1.81853 3.5 0.928211 3.5 0
C 3.5 -0.928211 3.131218 -1.81853 2.474874 -2.474874
C 1.81853 -3.131218 0.928211 -3.5 0 -3.5
C -0.928211 -3.5 -1.81853 -3.131218 -2.474874 -2.474874
C -3.131218 -1.81853 -3.5 -0.928211 -3.5 0
C -3.5 0.928211 -3.131218 1.81853 -2.474874 2.474874
C -1.81853 3.131218 -0.928211 3.5 0 3.5
z
" style="stroke: #b45309"/>
    </defs>
    <g clip-path="url(#p854eb6727d)">
     <use xlink:href="#ma4b51d22b1" x="135.144241" y="194.164805" style="fill: #f59e0b; stroke: #b45309"/>
    </g>
   </g>
  </g>
  <g id="axes_2">
   <g id="patch_28">
    <path d="M 498.459179 63.251172
L 538.741159 63.251172
L 538.741159 103.533152
L 498.459179 103.533152
z
" clip-path="url(#p927eff474a)" style="fill: #f6f8fb; stroke: #344054; stroke-width: 0.75; stroke-linejoin: miter"/>
   </g>
   <g id="patch_29">
    <path d="M 538.741159 63.251172
L 579.023139 63.251172
L 579.023139 103.533152
L 538.741159 103.533152
z
" clip-path="url(#p927eff474a)" style="fill: #f6f8fb; stroke: #344054; stroke-width: 0.75; stroke-linejoin: miter"/>
   </g>
   <g id="patch_30">
    <path d="M 579.023139 63.251172
L 619.305118 63.251172
L 619.305118 103.533152
L 579.023139 103.533152
z
" clip-path="url(#p927eff474a)" style="fill: #f6f8fb; stroke: #344054; stroke-width: 0.75; stroke-linejoin: miter"/>
   </g>
   <g id="patch_31">
    <path d="M 619.305118 63.251172
L 659.587098 63.251172
L 659.587098 103.533152
L 619.305118 103.533152
z
" clip-path="url(#p927eff474a)" style="fill: #f6f8fb; stroke: #344054; stroke-width: 0.75; stroke-linejoin: miter"/>
   </g>
   <g id="patch_32">
    <path d="M 659.587098 63.251172
L 699.869078 63.251172
L 699.869078 103.533152
L 659.587098 103.533152
z
" clip-path="url(#p927eff474a)" style="fill: #f6f8fb; stroke: #344054; stroke-width: 0.75; stroke-linejoin: miter"/>
   </g>
   <g id="patch_33">
    <path d="M 699.869078 63.251172
L 740.151058 63.251172
L 740.151058 103.533152
L 699.869078 103.533152
z
" clip-path="url(#p927eff474a)" style="fill: #f6f8fb; stroke: #344054; stroke-width: 0.75; stroke-linejoin: miter"/>
   </g>
   <g id="patch_34">
    <path d="M 740.151058 63.251172
L 780.433038 63.251172
L 780.433038 103.533152
L 740.151058 103.533152
z
" clip-path="url(#p927eff474a)" style="fill: #f6f8fb; stroke: #344054; stroke-width: 0.75; stroke-linejoin: miter"/>
   </g>
   <g id="patch_35">
    <path d="M 780.433038 63.251172
L 820.715017 63.251172
L 820.715017 103.533152
L 780.433038 103.533152
z
" clip-path="url(#p927eff474a)" style="fill: #f6f8fb; stroke: #344054; stroke-width: 0.75; stroke-linejoin: miter"/>
   </g>
   <g id="patch_36">
    <path d="M 498.459179 103.533152
L 538.741159 103.533152
L 538.741159 143.815131
L 498.459179 143.815131
z
" clip-path="url(#p927eff474a)" style="fill: #f6f8fb; stroke: #344054; stroke-width: 0.75; stroke-linejoin: miter"/>
   </g>
   <g id="patch_37">
    <path d="M 538.741159 103.533152
L 579.023139 103.533152
L 579.023139 143.815131
L 538.741159 143.815131
z
" clip-path="url(#p927eff474a)" style="fill: #f6f8fb; stroke: #344054; stroke-width: 0.75; stroke-linejoin: miter"/>
   </g>
   <g id="patch_38">
    <path d="M 579.023139 103.533152
L 619.305118 103.533152
L 619.305118 143.815131
L 579.023139 143.815131
z
" clip-path="url(#p927eff474a)" style="fill: #f6f8fb; stroke: #344054; stroke-width: 0.75; stroke-linejoin: miter"/>
   </g>
   <g id="patch_39">
    <path d="M 619.305118 103.533152
L 659.587098 103.533152
L 659.587098 143.815131
L 619.305118 143.815131
z
" clip-path="url(#p927eff474a)" style="fill: #f6f8fb; stroke: #344054; stroke-width: 0.75; stroke-linejoin: miter"/>
   </g>
   <g id="patch_40">
    <path d="M 659.587098 103.533152
L 699.869078 103.533152
L 699.869078 143.815131
L 659.587098 143.815131
z
" clip-path="url(#p927eff474a)" style="fill: #f6f8fb; stroke: #344054; stroke-width: 0.75; stroke-linejoin: miter"/>
   </g>
   <g id="patch_41">
    <path d="M 699.869078 103.533152
L 740.151058 103.533152
L 740.151058 143.815131
L 699.869078 143.815131
z
" clip-path="url(#p927eff474a)" style="fill: #f6f8fb; stroke: #344054; stroke-width: 0.75; stroke-linejoin: miter"/>
   </g>
   <g id="patch_42">
    <path d="M 740.151058 103.533152
L 780.433038 103.533152
L 780.433038 143.815131
L 740.151058 143.815131
z
" clip-path="url(#p927eff474a)" style="fill: #f6f8fb; stroke: #344054; stroke-width: 0.75; stroke-linejoin: miter"/>
   </g>
   <g id="patch_43">
    <path d="M 780.433038 103.533152
L 820.715017 103.533152
L 820.715017 143.815131
L 780.433038 143.815131
z
" clip-path="url(#p927eff474a)" style="fill: #f6f8fb; stroke: #344054; stroke-width: 0.75; stroke-linejoin: miter"/>
   </g>
   <g id="patch_44">
    <path d="M 498.459179 143.815131
L 538.741159 143.815131
L 538.741159 184.097111
L 498.459179 184.097111
z
" clip-path="url(#p927eff474a)" style="fill: #f6f8fb; stroke: #344054; stroke-width: 0.75; stroke-linejoin: miter"/>
   </g>
   <g id="patch_45">
    <path d="M 538.741159 143.815131
L 579.023139 143.815131
L 579.023139 184.097111
L 538.741159 184.097111
z
" clip-path="url(#p927eff474a)" style="fill: #f6f8fb; stroke: #344054; stroke-width: 0.75; stroke-linejoin: miter"/>
   </g>
   <g id="patch_46">
    <path d="M 579.023139 143.815131
L 619.305118 143.815131
L 619.305118 184.097111
L 579.023139 184.097111
z
" clip-path="url(#p927eff474a)" style="fill: #f6f8fb; stroke: #344054; stroke-width: 0.75; stroke-linejoin: miter"/>
   </g>
   <g id="patch_47">
    <path d="M 619.305118 143.815131
L 659.587098 143.815131
L 659.587098 184.097111
L 619.305118 184.097111
z
" clip-path="url(#p927eff474a)" style="fill: #f6f8fb; stroke: #344054; stroke-width: 0.75; stroke-linejoin: miter"/>
   </g>
   <g id="patch_48">
    <path d="M 659.587098 143.815131
L 699.869078 143.815131
L 699.869078 184.097111
L 659.587098 184.097111
z
" clip-path="url(#p927eff474a)" style="fill: #f6f8fb; stroke: #344054; stroke-width: 0.75; stroke-linejoin: miter"/>
   </g>
   <g id="patch_49">
    <path d="M 699.869078 143.815131
L 740.151058 143.815131
L 740.151058 184.097111
L 699.869078 184.097111
z
" clip-path="url(#p927eff474a)" style="fill: #f6f8fb; stroke: #344054; stroke-width: 0.75; stroke-linejoin: miter"/>
   </g>
   <g id="patch_50">
    <path d="M 740.151058 143.815131
L 780.433038 143.815131
L 780.433038 184.097111
L 740.151058 184.097111
z
" clip-path="url(#p927eff474a)" style="fill: #f6f8fb; stroke: #344054; stroke-width: 0.75; stroke-linejoin: miter"/>
   </g>
   <g id="patch_51">
    <path d="M 780.433038 143.815131
L 820.715017 143.815131
L 820.715017 184.097111
L 780.433038 184.097111
z
" clip-path="url(#p927eff474a)" style="fill: #f6f8fb; stroke: #344054; stroke-width: 0.75; stroke-linejoin: miter"/>
   </g>
   <g id="patch_52">
    <path d="M 498.459179 184.097111
L 538.741159 184.097111
L 538.741159 224.379091
L 498.459179 224.379091
z
" clip-path="url(#p927eff474a)" style="fill: #f6f8fb; stroke: #344054; stroke-width: 0.75; stroke-linejoin: miter"/>
   </g>
   <g id="patch_53">
    <path d="M 538.741159 184.097111
L 579.023139 184.097111
L 579.023139 224.379091
L 538.741159 224.379091
z
" clip-path="url(#p927eff474a)" style="fill: #f6f8fb; stroke: #344054; stroke-width: 0.75; stroke-linejoin: miter"/>
   </g>
   <g id="patch_54">
    <path d="M 579.023139 184.097111
L 619.305118 184.097111
L 619.305118 224.379091
L 579.023139 224.379091
z
" clip-path="url(#p927eff474a)" style="fill: #f6f8fb; stroke: #344054; stroke-width: 0.75; stroke-linejoin: miter"/>
   </g>
   <g id="patch_55">
    <path d="M 619.305118 184.097111
L 659.587098 184.097111
L 659.587098 224.379091
L 619.305118 224.379091
z
" clip-path="url(#p927eff474a)" style="fill: #f6f8fb; stroke: #344054; stroke-width: 0.75; stroke-linejoin: miter"/>
   </g>
   <g id="patch_56">
    <path d="M 659.587098 184.097111
L 699.869078 184.097111
L 699.869078 224.379091
L 659.587098 224.379091
z
" clip-path="url(#p927eff474a)" style="fill: #f6f8fb; stroke: #344054; stroke-width: 0.75; stroke-linejoin: miter"/>
   </g>
   <g id="patch_57">
    <path d="M 699.869078 184.097111
L 740.151058 184.097111
L 740.151058 224.379091
L 699.869078 224.379091
z
" clip-path="url(#p927eff474a)" style="fill: #f6f8fb; stroke: #344054; stroke-width: 0.75; stroke-linejoin: miter"/>
   </g>
   <g id="patch_58">
    <path d="M 740.151058 184.097111
L 780.433038 184.097111
L 780.433038 224.379091
L 740.151058 224.379091
z
" clip-path="url(#p927eff474a)" style="fill: #f6f8fb; stroke: #344054; stroke-width: 0.75; stroke-linejoin: miter"/>
   </g>
   <g id="patch_59">
    <path d="M 780.433038 184.097111
L 820.715017 184.097111
L 820.715017 224.379091
L 780.433038 224.379091
z
" clip-path="url(#p927eff474a)" style="fill: #f6f8fb; stroke: #344054; stroke-width: 0.75; stroke-linejoin: miter"/>
   </g>
   <g id="patch_60">
    <path d="M 498.459179 224.379091
L 538.741159 224.379091
L 538.741159 264.661071
L 498.459179 264.661071
z
" clip-path="url(#p927eff474a)" style="fill: #f6f8fb; stroke: #344054; stroke-width: 0.75; stroke-linejoin: miter"/>
   </g>
   <g id="patch_61">
    <path d="M 538.741159 224.379091
L 579.023139 224.379091
L 579.023139 264.661071
L 538.741159 264.661071
z
" clip-path="url(#p927eff474a)" style="fill: #f6f8fb; stroke: #344054; stroke-width: 0.75; stroke-linejoin: miter"/>
   </g>
   <g id="patch_62">
    <path d="M 579.023139 224.379091
L 619.305118 224.379091
L 619.305118 264.661071
L 579.023139 264.661071
z
" clip-path="url(#p927eff474a)" style="fill: #f6f8fb; stroke: #344054; stroke-width: 0.75; stroke-linejoin: miter"/>
   </g>
   <g id="patch_63">
    <path d="M 619.305118 224.379091
L 659.587098 224.379091
L 659.587098 264.661071
L 619.305118 264.661071
z
" clip-path="url(#p927eff474a)" style="fill: #f6f8fb; stroke: #344054; stroke-width: 0.75; stroke-linejoin: miter"/>
   </g>
   <g id="patch_64">
    <path d="M 659.587098 224.379091
L 699.869078 224.379091
L 699.869078 264.661071
L 659.587098 264.661071
z
" clip-path="url(#p927eff474a)" style="fill: #f6f8fb; stroke: #344054; stroke-width: 0.75; stroke-linejoin: miter"/>
   </g>
   <g id="patch_65">
    <path d="M 699.869078 224.379091
L 740.151058 224.379091
L 740.151058 264.661071
L 699.869078 264.661071
z
" clip-path="url(#p927eff474a)" style="fill: #f6f8fb; stroke: #344054; stroke-width: 0.75; stroke-linejoin: miter"/>
   </g>
   <g id="patch_66">
    <path d="M 740.151058 224.379091
L 780.433038 224.379091
L 780.433038 264.661071
L 740.151058 264.661071
z
" clip-path="url(#p927eff474a)" style="fill: #f6f8fb; stroke: #344054; stroke-width: 0.75; stroke-linejoin: miter"/>
   </g>
   <g id="patch_67">
    <path d="M 780.433038 224.379091
L 820.715017 224.379091
L 820.715017 264.661071
L 780.433038 264.661071
z
" clip-path="url(#p927eff474a)" style="fill: #f6f8fb; stroke: #344054; stroke-width: 0.75; stroke-linejoin: miter"/>
   </g>
   <g id="patch_68">
    <path d="M 498.459179 264.661071
L 538.741159 264.661071
L 538.741159 304.943051
L 498.459179 304.943051
z
" clip-path="url(#p927eff474a)" style="fill: #f6f8fb; stroke: #344054; stroke-width: 0.75; stroke-linejoin: miter"/>
   </g>
   <g id="patch_69">
    <path d="M 538.741159 264.661071
L 579.023139 264.661071
L 579.023139 304.943051
L 538.741159 304.943051
z
" clip-path="url(#p927eff474a)" style="fill: #f6f8fb; stroke: #344054; stroke-width: 0.75; stroke-linejoin: miter"/>
   </g>
   <g id="patch_70">
    <path d="M 579.023139 264.661071
L 619.305118 264.661071
L 619.305118 304.943051
L 579.023139 304.943051
z
" clip-path="url(#p927eff474a)" style="fill: #f6f8fb; stroke: #344054; stroke-width: 0.75; stroke-linejoin: miter"/>
   </g>
   <g id="patch_71">
    <path d="M 619.305118 264.661071
L 659.587098 264.661071
L 659.587098 304.943051
L 619.305118 304.943051
z
" clip-path="url(#p927eff474a)" style="fill: #f6f8fb; stroke: #344054; stroke-width: 0.75; stroke-linejoin: miter"/>
   </g>
   <g id="patch_72">
    <path d="M 659.587098 264.661071
L 699.869078 264.661071
L 699.869078 304.943051
L 659.587098 304.943051
z
" clip-path="url(#p927eff474a)" style="fill: #f6f8fb; stroke: #344054; stroke-width: 0.75; stroke-linejoin: miter"/>
   </g>
   <g id="patch_73">
    <path d="M 699.869078 264.661071
L 740.151058 264.661071
L 740.151058 304.943051
L 699.869078 304.943051
z
" clip-path="url(#p927eff474a)" style="fill: #f6f8fb; stroke: #344054; stroke-width: 0.75; stroke-linejoin: miter"/>
   </g>
   <g id="patch_74">
    <path d="M 740.151058 264.661071
L 780.433038 264.661071
L 780.433038 304.943051
L 740.151058 304.943051
z
" clip-path="url(#p927eff474a)" style="fill: #f6f8fb; stroke: #344054; stroke-width: 0.75; stroke-linejoin: miter"/>
   </g>
   <g id="patch_75">
    <path d="M 780.433038 264.661071
L 820.715017 264.661071
L 820.715017 304.943051
L 780.433038 304.943051
z
" clip-path="url(#p927eff474a)" style="fill: #f6f8fb; stroke: #344054; stroke-width: 0.75; stroke-linejoin: miter"/>
   </g>
   <g id="patch_76">
    <path d="M 498.459179 304.943051
L 538.741159 304.943051
L 538.741159 345.22503
L 498.459179 345.22503
z
" clip-path="url(#p927eff474a)" style="fill: #f6f8fb; stroke: #344054; stroke-width: 0.75; stroke-linejoin: miter"/>
   </g>
   <g id="patch_77">
    <path d="M 538.741159 304.943051
L 579.023139 304.943051
L 579.023139 345.22503
L 538.741159 345.22503
z
" clip-path="url(#p927eff474a)" style="fill: #f6f8fb; stroke: #344054; stroke-width: 0.75; stroke-linejoin: miter"/>
   </g>
   <g id="patch_78">
    <path d="M 579.023139 304.943051
L 619.305118 304.943051
L 619.305118 345.22503
L 579.023139 345.22503
z
" clip-path="url(#p927eff474a)" style="fill: #f6f8fb; stroke: #344054; stroke-width: 0.75; stroke-linejoin: miter"/>
   </g>
   <g id="patch_79">
    <path d="M 619.305118 304.943051
L 659.587098 304.943051
L 659.587098 345.22503
L 619.305118 345.22503
z
" clip-path="url(#p927eff474a)" style="fill: #f6f8fb; stroke: #344054; stroke-width: 0.75; stroke-linejoin: miter"/>
   </g>
   <g id="patch_80">
    <path d="M 659.587098 304.943051
L 699.869078 304.943051
L 699.869078 345.22503
L 659.587098 345.22503
z
" clip-path="url(#p927eff474a)" style="fill: #f6f8fb; stroke: #344054; stroke-width: 0.75; stroke-linejoin: miter"/>
   </g>
   <g id="patch_81">
    <path d="M 699.869078 304.943051
L 740.151058 304.943051
L 740.151058 345.22503
L 699.869078 345.22503
z
" clip-path="url(#p927eff474a)" style="fill: #f6f8fb; stroke: #344054; stroke-width: 0.75; stroke-linejoin: miter"/>
   </g>
   <g id="patch_82">
    <path d="M 740.151058 304.943051
L 780.433038 304.943051
L 780.433038 345.22503
L 740.151058 345.22503
z
" clip-path="url(#p927eff474a)" style="fill: #f6f8fb; stroke: #344054; stroke-width: 0.75; stroke-linejoin: miter"/>
   </g>
   <g id="patch_83">
    <path d="M 780.433038 304.943051
L 820.715017 304.943051
L 820.715017 345.22503
L 780.433038 345.22503
z
" clip-path="url(#p927eff474a)" style="fill: #f6f8fb; stroke: #344054; stroke-width: 0.75; stroke-linejoin: miter"/>
   </g>
   <g id="patch_84">
    <path d="M 498.459179 345.22503
L 538.741159 345.22503
L 538.741159 385.50701
L 498.459179 385.50701
z
" clip-path="url(#p927eff474a)" style="fill: #f6f8fb; stroke: #344054; stroke-width: 0.75; stroke-linejoin: miter"/>
   </g>
   <g id="patch_85">
    <path d="M 538.741159 345.22503
L 579.023139 345.22503
L 579.023139 385.50701
L 538.741159 385.50701
z
" clip-path="url(#p927eff474a)" style="fill: #f6f8fb; stroke: #344054; stroke-width: 0.75; stroke-linejoin: miter"/>
   </g>
   <g id="patch_86">
    <path d="M 579.023139 345.22503
L 619.305118 345.22503
L 619.305118 385.50701
L 579.023139 385.50701
z
" clip-path="url(#p927eff474a)" style="fill: #f6f8fb; stroke: #344054; stroke-width: 0.75; stroke-linejoin: miter"/>
   </g>
   <g id="patch_87">
    <path d="M 619.305118 345.22503
L 659.587098 345.22503
L 659.587098 385.50701
L 619.305118 385.50701
z
" clip-path="url(#p927eff474a)" style="fill: #f6f8fb; stroke: #344054; stroke-width: 0.75; stroke-linejoin: miter"/>
   </g>
   <g id="patch_88">
    <path d="M 659.587098 345.22503
L 699.869078 345.22503
L 699.869078 385.50701
L 659.587098 385.50701
z
" clip-path="url(#p927eff474a)" style="fill: #f6f8fb; stroke: #344054; stroke-width: 0.75; stroke-linejoin: miter"/>
   </g>
   <g id="patch_89">
    <path d="M 699.869078 345.22503
L 740.151058 345.22503
L 740.151058 385.50701
L 699.869078 385.50701
z
" clip-path="url(#p927eff474a)" style="fill: #f6f8fb; stroke: #344054; stroke-width: 0.75; stroke-linejoin: miter"/>
   </g>
   <g id="patch_90">
    <path d="M 740.151058 345.22503
L 780.433038 345.22503
L 780.433038 385.50701
L 740.151058 385.50701
z
" clip-path="url(#p927eff474a)" style="fill: #f6f8fb; stroke: #344054; stroke-width: 0.75; stroke-linejoin: miter"/>
   </g>
   <g id="patch_91">
    <path d="M 780.433038 345.22503
L 820.715017 345.22503
L 820.715017 385.50701
L 780.433038 385.50701
z
" clip-path="url(#p927eff474a)" style="fill: #f6f8fb; stroke: #344054; stroke-width: 0.75; stroke-linejoin: miter"/>
   </g>
   <g id="text_13">
    <g id="patch_92">
     <path d="M 553.103504 38.389869
L 766.070692 38.389869
Q 769.270692 38.389869 769.270692 35.189869
L 769.270692 25.511744
Q 769.270692 22.311744 766.070692 22.311744
L 553.103504 22.311744
Q 549.903504 22.311744 549.903504 25.511744
L 549.903504 35.189869
Q 549.903504 38.389869 553.103504 38.389869
z
" style="fill: #e8f1ff; stroke: #1d4ed8; stroke-linejoin: miter"/>
    </g>
    <text style="font-weight: 700; font-size: 10px; font-family: 'DejaVu Sans'; text-anchor: middle; fill: #1d4ed8" x="659.587098" y="33.110182" transform="rotate(-0 659.587098 33.110182)">Element zoom: m=128..135, k=64..71</text>
   </g>
   <g id="patch_93">
    <path d="M 740.151058 264.661071
L 780.433038 264.661071
L 780.433038 304.943051
L 740.151058 304.943051
z
" clip-path="url(#p927eff474a)" style="fill: #ffe6b0; stroke: #b45309; stroke-width: 2; stroke-linejoin: miter"/>
   </g>
   <g id="text_14">
    <text style="font-size: 8px; font-family: 'DejaVu Sans'; text-anchor: middle" x="518.600169" y="85.599662" transform="rotate(-0 518.600169 85.599662)">49217</text>
   </g>
   <g id="text_15">
    <text style="font-size: 8px; font-family: 'DejaVu Sans'; text-anchor: middle" x="558.882149" y="85.599662" transform="rotate(-0 558.882149 85.599662)">49218</text>
   </g>
   <g id="text_16">
    <text style="font-size: 8px; font-family: 'DejaVu Sans'; text-anchor: middle" x="599.164129" y="85.599662" transform="rotate(-0 599.164129 85.599662)">49219</text>
   </g>
   <g id="text_17">
    <text style="font-size: 8px; font-family: 'DejaVu Sans'; text-anchor: middle" x="639.446108" y="85.599662" transform="rotate(-0 639.446108 85.599662)">49220</text>
   </g>
   <g id="text_18">
    <text style="font-size: 8px; font-family: 'DejaVu Sans'; text-anchor: middle" x="679.728088" y="85.599662" transform="rotate(-0 679.728088 85.599662)">49221</text>
   </g>
   <g id="text_19">
    <text style="font-size: 8px; font-family: 'DejaVu Sans'; text-anchor: middle" x="720.010068" y="85.599662" transform="rotate(-0 720.010068 85.599662)">49222</text>
   </g>
   <g id="text_20">
    <text style="font-size: 8px; font-family: 'DejaVu Sans'; text-anchor: middle" x="760.292048" y="85.599662" transform="rotate(-0 760.292048 85.599662)">49223</text>
   </g>
   <g id="text_21">
    <text style="font-size: 8px; font-family: 'DejaVu Sans'; text-anchor: middle" x="800.574028" y="85.599662" transform="rotate(-0 800.574028 85.599662)">49224</text>
   </g>
   <g id="text_22">
    <text style="font-size: 8px; font-family: 'DejaVu Sans'; text-anchor: middle" x="518.600169" y="125.881641" transform="rotate(-0 518.600169 125.881641)">49601</text>
   </g>
   <g id="text_23">
    <text style="font-size: 8px; font-family: 'DejaVu Sans'; text-anchor: middle" x="558.882149" y="125.881641" transform="rotate(-0 558.882149 125.881641)">49602</text>
   </g>
   <g id="text_24">
    <text style="font-size: 8px; font-family: 'DejaVu Sans'; text-anchor: middle" x="599.164129" y="125.881641" transform="rotate(-0 599.164129 125.881641)">49603</text>
   </g>
   <g id="text_25">
    <text style="font-size: 8px; font-family: 'DejaVu Sans'; text-anchor: middle" x="639.446108" y="125.881641" transform="rotate(-0 639.446108 125.881641)">49604</text>
   </g>
   <g id="text_26">
    <text style="font-size: 8px; font-family: 'DejaVu Sans'; text-anchor: middle" x="679.728088" y="125.881641" transform="rotate(-0 679.728088 125.881641)">49605</text>
   </g>
   <g id="text_27">
    <text style="font-size: 8px; font-family: 'DejaVu Sans'; text-anchor: middle" x="720.010068" y="125.881641" transform="rotate(-0 720.010068 125.881641)">49606</text>
   </g>
   <g id="text_28">
    <text style="font-size: 8px; font-family: 'DejaVu Sans'; text-anchor: middle" x="760.292048" y="125.881641" transform="rotate(-0 760.292048 125.881641)">49607</text>
   </g>
   <g id="text_29">
    <text style="font-size: 8px; font-family: 'DejaVu Sans'; text-anchor: middle" x="800.574028" y="125.881641" transform="rotate(-0 800.574028 125.881641)">49608</text>
   </g>
   <g id="text_30">
    <text style="font-size: 8px; font-family: 'DejaVu Sans'; text-anchor: middle" x="518.600169" y="166.163621" transform="rotate(-0 518.600169 166.163621)">49985</text>
   </g>
   <g id="text_31">
    <text style="font-size: 8px; font-family: 'DejaVu Sans'; text-anchor: middle" x="558.882149" y="166.163621" transform="rotate(-0 558.882149 166.163621)">49986</text>
   </g>
   <g id="text_32">
    <text style="font-size: 8px; font-family: 'DejaVu Sans'; text-anchor: middle" x="599.164129" y="166.163621" transform="rotate(-0 599.164129 166.163621)">49987</text>
   </g>
   <g id="text_33">
    <text style="font-size: 8px; font-family: 'DejaVu Sans'; text-anchor: middle" x="639.446108" y="166.163621" transform="rotate(-0 639.446108 166.163621)">49988</text>
   </g>
   <g id="text_34">
    <text style="font-size: 8px; font-family: 'DejaVu Sans'; text-anchor: middle" x="679.728088" y="166.163621" transform="rotate(-0 679.728088 166.163621)">49989</text>
   </g>
   <g id="text_35">
    <text style="font-size: 8px; font-family: 'DejaVu Sans'; text-anchor: middle" x="720.010068" y="166.163621" transform="rotate(-0 720.010068 166.163621)">49990</text>
   </g>
   <g id="text_36">
    <text style="font-size: 8px; font-family: 'DejaVu Sans'; text-anchor: middle" x="760.292048" y="166.163621" transform="rotate(-0 760.292048 166.163621)">49991</text>
   </g>
   <g id="text_37">
    <text style="font-size: 8px; font-family: 'DejaVu Sans'; text-anchor: middle" x="800.574028" y="166.163621" transform="rotate(-0 800.574028 166.163621)">49992</text>
   </g>
   <g id="text_38">
    <text style="font-size: 8px; font-family: 'DejaVu Sans'; text-anchor: middle" x="518.600169" y="206.445601" transform="rotate(-0 518.600169 206.445601)">50369</text>
   </g>
   <g id="text_39">
    <text style="font-size: 8px; font-family: 'DejaVu Sans'; text-anchor: middle" x="558.882149" y="206.445601" transform="rotate(-0 558.882149 206.445601)">50370</text>
   </g>
   <g id="text_40">
    <text style="font-size: 8px; font-family: 'DejaVu Sans'; text-anchor: middle" x="599.164129" y="206.445601" transform="rotate(-0 599.164129 206.445601)">50371</text>
   </g>
   <g id="text_41">
    <text style="font-size: 8px; font-family: 'DejaVu Sans'; text-anchor: middle" x="639.446108" y="206.445601" transform="rotate(-0 639.446108 206.445601)">50372</text>
   </g>
   <g id="text_42">
    <text style="font-size: 8px; font-family: 'DejaVu Sans'; text-anchor: middle" x="679.728088" y="206.445601" transform="rotate(-0 679.728088 206.445601)">50373</text>
   </g>
   <g id="text_43">
    <text style="font-size: 8px; font-family: 'DejaVu Sans'; text-anchor: middle" x="720.010068" y="206.445601" transform="rotate(-0 720.010068 206.445601)">50374</text>
   </g>
   <g id="text_44">
    <text style="font-size: 8px; font-family: 'DejaVu Sans'; text-anchor: middle" x="760.292048" y="206.445601" transform="rotate(-0 760.292048 206.445601)">50375</text>
   </g>
   <g id="text_45">
    <text style="font-size: 8px; font-family: 'DejaVu Sans'; text-anchor: middle" x="800.574028" y="206.445601" transform="rotate(-0 800.574028 206.445601)">50376</text>
   </g>
   <g id="text_46">
    <text style="font-size: 8px; font-family: 'DejaVu Sans'; text-anchor: middle" x="518.600169" y="246.727581" transform="rotate(-0 518.600169 246.727581)">50753</text>
   </g>
   <g id="text_47">
    <text style="font-size: 8px; font-family: 'DejaVu Sans'; text-anchor: middle" x="558.882149" y="246.727581" transform="rotate(-0 558.882149 246.727581)">50754</text>
   </g>
   <g id="text_48">
    <text style="font-size: 8px; font-family: 'DejaVu Sans'; text-anchor: middle" x="599.164129" y="246.727581" transform="rotate(-0 599.164129 246.727581)">50755</text>
   </g>
   <g id="text_49">
    <text style="font-size: 8px; font-family: 'DejaVu Sans'; text-anchor: middle" x="639.446108" y="246.727581" transform="rotate(-0 639.446108 246.727581)">50756</text>
   </g>
   <g id="text_50">
    <text style="font-size: 8px; font-family: 'DejaVu Sans'; text-anchor: middle" x="679.728088" y="246.727581" transform="rotate(-0 679.728088 246.727581)">50757</text>
   </g>
   <g id="text_51">
    <text style="font-size: 8px; font-family: 'DejaVu Sans'; text-anchor: middle" x="720.010068" y="246.727581" transform="rotate(-0 720.010068 246.727581)">50758</text>
   </g>
   <g id="text_52">
    <text style="font-size: 8px; font-family: 'DejaVu Sans'; text-anchor: middle" x="760.292048" y="246.727581" transform="rotate(-0 760.292048 246.727581)">50759</text>
   </g>
   <g id="text_53">
    <text style="font-size: 8px; font-family: 'DejaVu Sans'; text-anchor: middle" x="800.574028" y="246.727581" transform="rotate(-0 800.574028 246.727581)">50760</text>
   </g>
   <g id="text_54">
    <text style="font-size: 8px; font-family: 'DejaVu Sans'; text-anchor: middle" x="518.600169" y="287.009561" transform="rotate(-0 518.600169 287.009561)">51137</text>
   </g>
   <g id="text_55">
    <text style="font-size: 8px; font-family: 'DejaVu Sans'; text-anchor: middle" x="558.882149" y="287.009561" transform="rotate(-0 558.882149 287.009561)">51138</text>
   </g>
   <g id="text_56">
    <text style="font-size: 8px; font-family: 'DejaVu Sans'; text-anchor: middle" x="599.164129" y="287.009561" transform="rotate(-0 599.164129 287.009561)">51139</text>
   </g>
   <g id="text_57">
    <text style="font-size: 8px; font-family: 'DejaVu Sans'; text-anchor: middle" x="639.446108" y="287.009561" transform="rotate(-0 639.446108 287.009561)">51140</text>
   </g>
   <g id="text_58">
    <text style="font-size: 8px; font-family: 'DejaVu Sans'; text-anchor: middle" x="679.728088" y="287.009561" transform="rotate(-0 679.728088 287.009561)">51141</text>
   </g>
   <g id="text_59">
    <text style="font-size: 8px; font-family: 'DejaVu Sans'; text-anchor: middle" x="720.010068" y="287.009561" transform="rotate(-0 720.010068 287.009561)">51142</text>
   </g>
   <g id="text_60">
    <text style="font-size: 8px; font-family: 'DejaVu Sans'" transform="translate(747.567048 282.530436)">51143</text>
    <text style="font-size: 8px; font-family: 'DejaVu Sans'" transform="translate(744.573298 291.488686)">TARGET</text>
   </g>
   <g id="text_61">
    <text style="font-size: 8px; font-family: 'DejaVu Sans'; text-anchor: middle" x="800.574028" y="287.009561" transform="rotate(-0 800.574028 287.009561)">51144</text>
   </g>
   <g id="text_62">
    <text style="font-size: 8px; font-family: 'DejaVu Sans'; text-anchor: middle" x="518.600169" y="327.29154" transform="rotate(-0 518.600169 327.29154)">51521</text>
   </g>
   <g id="text_63">
    <text style="font-size: 8px; font-family: 'DejaVu Sans'; text-anchor: middle" x="558.882149" y="327.29154" transform="rotate(-0 558.882149 327.29154)">51522</text>
   </g>
   <g id="text_64">
    <text style="font-size: 8px; font-family: 'DejaVu Sans'; text-anchor: middle" x="599.164129" y="327.29154" transform="rotate(-0 599.164129 327.29154)">51523</text>
   </g>
   <g id="text_65">
    <text style="font-size: 8px; font-family: 'DejaVu Sans'; text-anchor: middle" x="639.446108" y="327.29154" transform="rotate(-0 639.446108 327.29154)">51524</text>
   </g>
   <g id="text_66">
    <text style="font-size: 8px; font-family: 'DejaVu Sans'; text-anchor: middle" x="679.728088" y="327.29154" transform="rotate(-0 679.728088 327.29154)">51525</text>
   </g>
   <g id="text_67">
    <text style="font-size: 8px; font-family: 'DejaVu Sans'; text-anchor: middle" x="720.010068" y="327.29154" transform="rotate(-0 720.010068 327.29154)">51526</text>
   </g>
   <g id="text_68">
    <text style="font-size: 8px; font-family: 'DejaVu Sans'; text-anchor: middle" x="760.292048" y="327.29154" transform="rotate(-0 760.292048 327.29154)">51527</text>
   </g>
   <g id="text_69">
    <text style="font-size: 8px; font-family: 'DejaVu Sans'; text-anchor: middle" x="800.574028" y="327.29154" transform="rotate(-0 800.574028 327.29154)">51528</text>
   </g>
   <g id="text_70">
    <text style="font-size: 8px; font-family: 'DejaVu Sans'; text-anchor: middle" x="518.600169" y="367.57352" transform="rotate(-0 518.600169 367.57352)">51905</text>
   </g>
   <g id="text_71">
    <text style="font-size: 8px; font-family: 'DejaVu Sans'; text-anchor: middle" x="558.882149" y="367.57352" transform="rotate(-0 558.882149 367.57352)">51906</text>
   </g>
   <g id="text_72">
    <text style="font-size: 8px; font-family: 'DejaVu Sans'; text-anchor: middle" x="599.164129" y="367.57352" transform="rotate(-0 599.164129 367.57352)">51907</text>
   </g>
   <g id="text_73">
    <text style="font-size: 8px; font-family: 'DejaVu Sans'; text-anchor: middle" x="639.446108" y="367.57352" transform="rotate(-0 639.446108 367.57352)">51908</text>
   </g>
   <g id="text_74">
    <text style="font-size: 8px; font-family: 'DejaVu Sans'; text-anchor: middle" x="679.728088" y="367.57352" transform="rotate(-0 679.728088 367.57352)">51909</text>
   </g>
   <g id="text_75">
    <text style="font-size: 8px; font-family: 'DejaVu Sans'; text-anchor: middle" x="720.010068" y="367.57352" transform="rotate(-0 720.010068 367.57352)">51910</text>
   </g>
   <g id="text_76">
    <text style="font-size: 8px; font-family: 'DejaVu Sans'; text-anchor: middle" x="760.292048" y="367.57352" transform="rotate(-0 760.292048 367.57352)">51911</text>
   </g>
   <g id="text_77">
    <text style="font-size: 8px; font-family: 'DejaVu Sans'; text-anchor: middle" x="800.574028" y="367.57352" transform="rotate(-0 800.574028 367.57352)">51912</text>
   </g>
   <g id="text_78">
    <text style="font-size: 8.5px; font-family: 'DejaVu Sans'; text-anchor: middle; fill: #596579" x="486.374585" y="85.73763" transform="rotate(-0 486.374585 85.73763)">128</text>
   </g>
   <g id="text_79">
    <text style="font-size: 8.5px; font-family: 'DejaVu Sans'; text-anchor: middle; fill: #596579" x="486.374585" y="126.01961" transform="rotate(-0 486.374585 126.01961)">129</text>
   </g>
   <g id="text_80">
    <text style="font-size: 8.5px; font-family: 'DejaVu Sans'; text-anchor: middle; fill: #596579" x="486.374585" y="166.30159" transform="rotate(-0 486.374585 166.30159)">130</text>
   </g>
   <g id="text_81">
    <text style="font-size: 8.5px; font-family: 'DejaVu Sans'; text-anchor: middle; fill: #596579" x="486.374585" y="206.58357" transform="rotate(-0 486.374585 206.58357)">131</text>
   </g>
   <g id="text_82">
    <text style="font-size: 8.5px; font-family: 'DejaVu Sans'; text-anchor: middle; fill: #596579" x="486.374585" y="246.86555" transform="rotate(-0 486.374585 246.86555)">132</text>
   </g>
   <g id="text_83">
    <text style="font-size: 8.5px; font-family: 'DejaVu Sans'; text-anchor: middle; fill: #596579" x="486.374585" y="287.147529" transform="rotate(-0 486.374585 287.147529)">133</text>
   </g>
   <g id="text_84">
    <text style="font-size: 8.5px; font-family: 'DejaVu Sans'; text-anchor: middle; fill: #596579" x="486.374585" y="327.429509" transform="rotate(-0 486.374585 327.429509)">134</text>
   </g>
   <g id="text_85">
    <text style="font-size: 8.5px; font-family: 'DejaVu Sans'; text-anchor: middle; fill: #596579" x="486.374585" y="367.711489" transform="rotate(-0 486.374585 367.711489)">135</text>
   </g>
   <g id="text_86">
    <text style="font-size: 8.5px; font-family: 'DejaVu Sans'; text-anchor: middle; fill: #596579" x="518.600169" y="53.512047" transform="rotate(-0 518.600169 53.512047)">64</text>
   </g>
   <g id="text_87">
    <text style="font-size: 8.5px; font-family: 'DejaVu Sans'; text-anchor: middle; fill: #596579" x="558.882149" y="53.512047" transform="rotate(-0 558.882149 53.512047)">65</text>
   </g>
   <g id="text_88">
    <text style="font-size: 8.5px; font-family: 'DejaVu Sans'; text-anchor: middle; fill: #596579" x="599.164129" y="53.512047" transform="rotate(-0 599.164129 53.512047)">66</text>
   </g>
   <g id="text_89">
    <text style="font-size: 8.5px; font-family: 'DejaVu Sans'; text-anchor: middle; fill: #596579" x="639.446108" y="53.512047" transform="rotate(-0 639.446108 53.512047)">67</text>
   </g>
   <g id="text_90">
    <text style="font-size: 8.5px; font-family: 'DejaVu Sans'; text-anchor: middle; fill: #596579" x="679.728088" y="53.512047" transform="rotate(-0 679.728088 53.512047)">68</text>
   </g>
   <g id="text_91">
    <text style="font-size: 8.5px; font-family: 'DejaVu Sans'; text-anchor: middle; fill: #596579" x="720.010068" y="53.512047" transform="rotate(-0 720.010068 53.512047)">69</text>
   </g>
   <g id="text_92">
    <text style="font-size: 8.5px; font-family: 'DejaVu Sans'; text-anchor: middle; fill: #596579" x="760.292048" y="53.512047" transform="rotate(-0 760.292048 53.512047)">70</text>
   </g>
   <g id="text_93">
    <text style="font-size: 8.5px; font-family: 'DejaVu Sans'; text-anchor: middle; fill: #596579" x="800.574028" y="53.512047" transform="rotate(-0 800.574028 53.512047)">71</text>
   </g>
   <g id="line2d_2">
    <path d="M 760.292048 284.802061
" clip-path="url(#p927eff474a)" style="fill: none; stroke: #f59e0b; stroke-width: 1.5; stroke-linecap: square"/>
    <g clip-path="url(#p927eff474a)">
     <use xlink:href="#ma4b51d22b1" x="760.292048" y="284.802061" style="fill: #f59e0b; stroke: #b45309"/>
    </g>
   </g>
   <g id="text_94">
    <g id="patch_94">
     <path d="M 832.799611 300.558404
L 887.879611 300.558404
Q 890.004611 300.558404 890.004611 298.433404
L 890.004611 271.170717
Q 890.004611 269.045717 887.879611 269.045717
L 832.799611 269.045717
Q 830.674611 269.045717 830.674611 271.170717
L 830.674611 298.433404
Q 830.674611 300.558404 832.799611 300.558404
z
" style="fill: #ffffff; opacity: 0.96; stroke: #b45309; stroke-linejoin: miter"/>
    </g>
    <text style="font-size: 8.5px; font-family: 'DejaVu Sans'; fill: #b45309" transform="translate(832.799611 277.629389)">&lt;- A[133,70]</text>
    <text style="font-size: 8.5px; font-family: 'DejaVu Sans'; fill: #b45309" transform="translate(832.799611 287.147529)">id=51143</text>
    <text style="font-size: 8.5px; font-family: 'DejaVu Sans'; fill: #b45309" transform="translate(832.799611 296.66567)">local=(5,6)</text>
   </g>
  </g>
  <g id="text_95">
   <text style="font-weight: 700; font-size: 12px; font-family: 'DejaVu Sans'; text-anchor: middle; fill: #172033" x="442.687098" y="16.318125" transform="rotate(-0 442.687098 16.318125)">Find one element at two coordinate scales</text>
  </g>
  <g id="text_96">
   <g id="patch_95">
    <path d="M 381.513581 211.563091
L 534.091706 211.563091
Q 535.891706 211.563091 535.891706 209.763091
L 535.891706 201.052778
Q 535.891706 199.252778 534.091706 199.252778
L 381.513581 199.252778
Q 379.713581 199.252778 379.713581 201.052778
L 379.713581 209.763091
Q 379.713581 211.563091 381.513581 211.563091
z
" style="fill: #ffffff; opacity: 0.95"/>
   </g>
   <text style="font-size: 9px; font-family: 'DejaVu Sans'; text-anchor: middle; fill: #b45309" x="457.802644" y="207.891372" transform="rotate(-0 457.802644 207.891372)">zoom selected tile -&gt; 8x8 window</text>
  </g>
  <g id="text_97">
   <text style="font-size: 8.5px; font-family: 'DejaVu Sans'; text-anchor: middle; fill: #596579" x="442.687098" y="409.669066" transform="rotate(-0 442.687098 409.669066)">Orange marks the same mathematical coordinate at tile scale and element scale.</text>
  </g>
  <g id="patch_96">
   <path d="M 423.47582 224.379091
Q 457.804295 224.379091 489.673096 224.379091
" style="fill: none; stroke: #b45309; stroke-width: 2.2; stroke-linecap: round"/>
   <path d="M 482.473096 220.779091
L 489.673096 224.379091
L 482.473096 227.979091
z
" style="fill: #b45309; stroke: #b45309; stroke-width: 2.2; stroke-linecap: round"/>
  </g>
 </g>
 <defs>
  <clipPath id="p854eb6727d">
   <rect x="14.287098" y="73.307662" width="423" height="302.142857"/>
  </clipPath>
  <clipPath id="p927eff474a">
   <rect x="478.318189" y="43.110182" width="362.537818" height="362.537818"/>
  </clipPath>
 </defs>
</svg>
