<?xml version="1.0" encoding="utf-8" standalone="no"?>
<!DOCTYPE svg PUBLIC "-//W3C//DTD SVG 1.1//EN"
  "http://www.w3.org/Graphics/SVG/1.1/DTD/svg11.dtd">
<svg xmlns:xlink="http://www.w3.org/1999/xlink" width="499.825703pt" height="446.5152pt" viewBox="0 0 499.825703 446.5152" xmlns="http://www.w3.org/2000/svg" version="1.1">
 <metadata>
  <rdf:RDF xmlns:dc="http://purl.org/dc/elements/1.1/" xmlns:cc="http://creativecommons.org/ns#" xmlns:rdf="http://www.w3.org/1999/02/22-rdf-syntax-ns#">
   <cc:Work>
    <dc:type rdf:resource="http://purl.org/dc/dcmitype/StillImage"/>
    <dc:format>image/svg+xml</dc:format>
    <dc:creator>
     <cc:Agent>
      <dc:title>Matplotlib v3.10.9, https://matplotlib.org/</dc:title>
     </cc:Agent>
    </dc:creator>
   </cc:Work>
  </rdf:RDF>
 </metadata>
 <defs>
  <style type="text/css">*{stroke-linejoin: round; stroke-linecap: butt}</style>
 </defs>
 <g id="figure_1">
  <g id="patch_1">
   <path d="M 0 446.5152
L 499.825703 446.5152
L 499.825703 0
L 0 0
z
" style="fill: #ffffff"/>
  </g>
  <g id="axes_1">
   <g id="patch_2">
    <path d="M 164.295074 69.996444
L 207.103963 69.996444
L 207.103963 112.805333
L 164.295074 112.805333
z
" clip-path="url(#p8b55eb68a9)" style="fill: #dcebff; stroke: #344054; stroke-width: 0.75; stroke-linejoin: miter"/>
   </g>
   <g id="patch_3">
    <path d="M 207.103963 69.996444
L 249.912852 69.996444
L 249.912852 112.805333
L 207.103963 112.805333
z
" clip-path="url(#p8b55eb68a9)" style="fill: #dcebff; stroke: #344054; stroke-width: 0.75; stroke-linejoin: miter"/>
   </g>
   <g id="patch_4">
    <path d="M 249.912852 69.996444
L 292.72174 69.996444
L 292.72174 112.805333
L 249.912852 112.805333
z
" clip-path="url(#p8b55eb68a9)" style="fill: #dcebff; stroke: #344054; stroke-width: 0.75; stroke-linejoin: miter"/>
   </g>
   <g id="patch_5">
    <path d="M 292.72174 69.996444
L 335.530629 69.996444
L 335.530629 112.805333
L 292.72174 112.805333
z
" clip-path="url(#p8b55eb68a9)" style="fill: #dcebff; stroke: #344054; stroke-width: 0.75; stroke-linejoin: miter"/>
   </g>
   <g id="patch_6">
    <path d="M 164.295074 112.805333
L 207.103963 112.805333
L 207.103963 155.614222
L 164.295074 155.614222
z
" clip-path="url(#p8b55eb68a9)" style="fill: #dcebff; stroke: #344054; stroke-width: 0.75; stroke-linejoin: miter"/>
   </g>
   <g id="patch_7">
    <path d="M 207.103963 112.805333
L 249.912852 112.805333
L 249.912852 155.614222
L 207.103963 155.614222
z
" clip-path="url(#p8b55eb68a9)" style="fill: #dcebff; stroke: #344054; stroke-width: 0.75; stroke-linejoin: miter"/>
   </g>
   <g id="patch_8">
    <path d="M 249.912852 112.805333
L 292.72174 112.805333
L 292.72174 155.614222
L 249.912852 155.614222
z
" clip-path="url(#p8b55eb68a9)" style="fill: #dcebff; stroke: #344054; stroke-width: 0.75; stroke-linejoin: miter"/>
   </g>
   <g id="patch_9">
    <path d="M 292.72174 112.805333
L 335.530629 112.805333
L 335.530629 155.614222
L 292.72174 155.614222
z
" clip-path="url(#p8b55eb68a9)" style="fill: #dcebff; stroke: #344054; stroke-width: 0.75; stroke-linejoin: miter"/>
   </g>
   <g id="patch_10">
    <path d="M 164.295074 155.614222
L 207.103963 155.614222
L 207.103963 198.423111
L 164.295074 198.423111
z
" clip-path="url(#p8b55eb68a9)" style="fill: #dcebff; stroke: #344054; stroke-width: 0.75; stroke-linejoin: miter"/>
   </g>
   <g id="patch_11">
    <path d="M 207.103963 155.614222
L 249.912852 155.614222
L 249.912852 198.423111
L 207.103963 198.423111
z
" clip-path="url(#p8b55eb68a9)" style="fill: #dcebff; stroke: #344054; stroke-width: 0.75; stroke-linejoin: miter"/>
   </g>
   <g id="patch_12">
    <path d="M 249.912852 155.614222
L 292.72174 155.614222
L 292.72174 198.423111
L 249.912852 198.423111
z
" clip-path="url(#p8b55eb68a9)" style="fill: #dcebff; stroke: #344054; stroke-width: 0.75; stroke-linejoin: miter"/>
   </g>
   <g id="patch_13">
    <path d="M 292.72174 155.614222
L 335.530629 155.614222
L 335.530629 198.423111
L 292.72174 198.423111
z
" clip-path="url(#p8b55eb68a9)" style="fill: #dcebff; stroke: #344054; stroke-width: 0.75; stroke-linejoin: miter"/>
   </g>
   <g id="patch_14">
    <path d="M 164.295074 198.423111
L 207.103963 198.423111
L 207.103963 241.232
L 164.295074 241.232
z
" clip-path="url(#p8b55eb68a9)" style="fill: #dcebff; stroke: #344054; stroke-width: 0.75; stroke-linejoin: miter"/>
   </g>
   <g id="patch_15">
    <path d="M 207.103963 198.423111
L 249.912852 198.423111
L 249.912852 241.232
L 207.103963 241.232
z
" clip-path="url(#p8b55eb68a9)" style="fill: #dcebff; stroke: #344054; stroke-width: 0.75; stroke-linejoin: miter"/>
   </g>
   <g id="patch_16">
    <path d="M 249.912852 198.423111
L 292.72174 198.423111
L 292.72174 241.232
L 249.912852 241.232
z
" clip-path="url(#p8b55eb68a9)" style="fill: #dcebff; stroke: #344054; stroke-width: 0.75; stroke-linejoin: miter"/>
   </g>
   <g id="patch_17">
    <path d="M 292.72174 198.423111
L 335.530629 198.423111
L 335.530629 241.232
L 292.72174 241.232
z
" clip-path="url(#p8b55eb68a9)" style="fill: #dcebff; stroke: #344054; stroke-width: 0.75; stroke-linejoin: miter"/>
   </g>
   <g id="patch_18">
    <path d="M 164.295074 241.232
L 207.103963 241.232
L 207.103963 284.040889
L 164.295074 284.040889
z
" clip-path="url(#p8b55eb68a9)" style="fill: #ddf7ea; stroke: #344054; stroke-width: 0.75; stroke-linejoin: miter"/>
   </g>
   <g id="patch_19">
    <path d="M 207.103963 241.232
L 249.912852 241.232
L 249.912852 284.040889
L 207.103963 284.040889
z
" clip-path="url(#p8b55eb68a9)" style="fill: #ddf7ea; stroke: #344054; stroke-width: 0.75; stroke-linejoin: miter"/>
   </g>
   <g id="patch_20">
    <path d="M 249.912852 241.232
L 292.72174 241.232
L 292.72174 284.040889
L 249.912852 284.040889
z
" clip-path="url(#p8b55eb68a9)" style="fill: #ddf7ea; stroke: #344054; stroke-width: 0.75; stroke-linejoin: miter"/>
   </g>
   <g id="patch_21">
    <path d="M 292.72174 241.232
L 335.530629 241.232
L 335.530629 284.040889
L 292.72174 284.040889
z
" clip-path="url(#p8b55eb68a9)" style="fill: #ddf7ea; stroke: #344054; stroke-width: 0.75; stroke-linejoin: miter"/>
   </g>
   <g id="patch_22">
    <path d="M 164.295074 284.040889
L 207.103963 284.040889
L 207.103963 326.849778
L 164.295074 326.849778
z
" clip-path="url(#p8b55eb68a9)" style="fill: #ddf7ea; stroke: #344054; stroke-width: 0.75; stroke-linejoin: miter"/>
   </g>
   <g id="patch_23">
    <path d="M 207.103963 284.040889
L 249.912852 284.040889
L 249.912852 326.849778
L 207.103963 326.849778
z
" clip-path="url(#p8b55eb68a9)" style="fill: #ddf7ea; stroke: #344054; stroke-width: 0.75; stroke-linejoin: miter"/>
   </g>
   <g id="patch_24">
    <path d="M 249.912852 284.040889
L 292.72174 284.040889
L 292.72174 326.849778
L 249.912852 326.849778
z
" clip-path="url(#p8b55eb68a9)" style="fill: #ddf7ea; stroke: #344054; stroke-width: 0.75; stroke-linejoin: miter"/>
   </g>
   <g id="patch_25">
    <path d="M 292.72174 284.040889
L 335.530629 284.040889
L 335.530629 326.849778
L 292.72174 326.849778
z
" clip-path="url(#p8b55eb68a9)" style="fill: #ddf7ea; stroke: #344054; stroke-width: 0.75; stroke-linejoin: miter"/>
   </g>
   <g id="patch_26">
    <path d="M 164.295074 326.849778
L 207.103963 326.849778
L 207.103963 369.658667
L 164.295074 369.658667
z
" clip-path="url(#p8b55eb68a9)" style="fill: #ddf7ea; stroke: #344054; stroke-width: 0.75; stroke-linejoin: miter"/>
   </g>
   <g id="patch_27">
    <path d="M 207.103963 326.849778
L 249.912852 326.849778
L 249.912852 369.658667
L 207.103963 369.658667
z
" clip-path="url(#p8b55eb68a9)" style="fill: #ddf7ea; stroke: #344054; stroke-width: 0.75; stroke-linejoin: miter"/>
   </g>
   <g id="patch_28">
    <path d="M 249.912852 326.849778
L 292.72174 326.849778
L 292.72174 369.658667
L 249.912852 369.658667
z
" clip-path="url(#p8b55eb68a9)" style="fill: #ddf7ea; stroke: #344054; stroke-width: 0.75; stroke-linejoin: miter"/>
   </g>
   <g id="patch_29">
    <path d="M 292.72174 326.849778
L 335.530629 326.849778
L 335.530629 369.658667
L 292.72174 369.658667
z
" clip-path="url(#p8b55eb68a9)" style="fill: #ddf7ea; stroke: #344054; stroke-width: 0.75; stroke-linejoin: miter"/>
   </g>
   <g id="patch_30">
    <path d="M 164.295074 369.658667
L 207.103963 369.658667
L 207.103963 412.467556
L 164.295074 412.467556
z
" clip-path="url(#p8b55eb68a9)" style="fill: #ddf7ea; stroke: #344054; stroke-width: 0.75; stroke-linejoin: miter"/>
   </g>
   <g id="patch_31">
    <path d="M 207.103963 369.658667
L 249.912852 369.658667
L 249.912852 412.467556
L 207.103963 412.467556
z
" clip-path="url(#p8b55eb68a9)" style="fill: #ddf7ea; stroke: #344054; stroke-width: 0.75; stroke-linejoin: miter"/>
   </g>
   <g id="patch_32">
    <path d="M 249.912852 369.658667
L 292.72174 369.658667
L 292.72174 412.467556
L 249.912852 412.467556
z
" clip-path="url(#p8b55eb68a9)" style="fill: #ddf7ea; stroke: #344054; stroke-width: 0.75; stroke-linejoin: miter"/>
   </g>
   <g id="patch_33">
    <path d="M 292.72174 369.658667
L 335.530629 369.658667
L 335.530629 412.467556
L 292.72174 412.467556
z
" clip-path="url(#p8b55eb68a9)" style="fill: #ddf7ea; stroke: #344054; stroke-width: 0.75; stroke-linejoin: miter"/>
   </g>
   <g id="patch_34">
    <path d="M 359.075518 174.878222
L 429.710185 174.878222
Q 433.991074 174.878222 433.991074 179.159111
L 433.991074 303.304889
Q 433.991074 307.585778 429.710185 307.585778
L 359.075518 307.585778
Q 354.794629 307.585778 354.794629 303.304889
L 354.794629 179.159111
Q 354.794629 174.878222 359.075518 174.878222
z
" style="fill: #e7f8f0; stroke: #087f5b; stroke-width: 1.5; stroke-linejoin: miter"/>
   </g>
   <g id="line2d_1">
    <path d="M 160.014185 241.232
L 339.811518 241.232
" style="fill: none; stroke: #172033; stroke-width: 2.2; stroke-linecap: square"/>
   </g>
   <g id="text_1">
    <text style="font-size: 9.5px; font-family: 'DejaVu Sans'; fill: #1d4ed8" transform="translate(80.658329 152.916668)">CTA rank 0</text>
    <text style="font-size: 9.5px; font-family: 'DejaVu Sans'; fill: #1d4ed8" transform="translate(65.514735 163.554589)">M rows 0..127</text>
   </g>
   <g id="text_2">
    <text style="font-size: 9.5px; font-family: 'DejaVu Sans'; fill: #087f5b" transform="translate(80.658329 324.152223)">CTA rank 1</text>
    <text style="font-size: 9.5px; font-family: 'DejaVu Sans'; fill: #087f5b" transform="translate(53.425985 334.790145)">M rows 128..255</text>
   </g>
   <g id="text_3">
    <text style="font-weight: 700; font-size: 10px; font-family: 'DejaVu Sans'; text-anchor: middle; fill: #087f5b" x="394.606896" y="223.443108" transform="rotate(-0 394.606896 223.443108)">B operand</text>
   </g>
   <g id="text_4">
    <text style="font-size: 8.2px; font-family: 'DejaVu Sans'; text-anchor: middle; fill: #596579" x="394.606896" y="252.056465" transform="rotate(-0 394.606896 252.056465)">jointly consumed</text>
   </g>
   <g id="text_5">
    <text style="font-weight: 700; font-size: 10px; font-family: 'DejaVu Sans'; text-anchor: middle; fill: #172033" x="249.912852" y="38.592" transform="rotate(-0 249.912852 38.592)">Pair-level output tile: M=256, N=256 (compressed to 8x4 blocks)</text>
   </g>
  </g>
  <g id="text_6">
   <text style="font-weight: 700; font-size: 12px; font-family: 'DejaVu Sans'; text-anchor: middle; fill: #172033" x="249.912852" y="16.318125" transform="rotate(-0 249.912852 16.318125)">CtaGroup.TWO: two CTA ranks cooperate on one MMA</text>
  </g>
  <g id="text_7">
   <text style="font-size: 8.5px; font-family: 'DejaVu Sans'; text-anchor: middle; fill: #596579" x="249.912852" y="437.547466" transform="rotate(-0 249.912852 437.547466)">CuTe CTA-pair logical partition. It is not a claim that this repository's unverified 2-SM readback mapping is correct.</text>
  </g>
 </g>
 <defs>
  <clipPath id="p8b55eb68a9">
   <rect x="142.890629" y="48.592" width="214.044444" height="385.28"/>
  </clipPath>
 </defs>
</svg>
